Coordinates
version=1
nRows=29
nColumns=22
inDegrees=yes

Units are S.I. units (second, meters, Newtons, ...)
If the header above contains a line with 'inDegrees', this indicates whether rotational values are in degrees (yes) or radians (no).

endheader
time	pelvis_tilt	pelvis_list	pelvis_rotation	pelvis_tx	pelvis_ty	pelvis_tz	hip_flexion_r	hip_adduction_r	hip_rotation_r	knee_angle_r	ankle_angle_r	subtalar_angle_r	hip_flexion_l	hip_adduction_l	hip_rotation_l	knee_angle_l	ankle_angle_l	subtalar_angle_l	lumbar_extension	lumbar_bending	lumbar_rotation
      5.65000000	     -9.44599097	      0.03564183	    -47.62470663	      1.08285195	      0.88204764	      0.90735035	     19.95819307	     -2.03012650	      0.34453761	    -52.92926373	      2.85270211	     12.84767495	      9.32069939	     -5.72813580	     -3.87536105	     -0.19573249	      4.95585282	      8.11597330	      1.39598730	     -0.60467904	      8.81649637
      5.66000000	     -9.42948814	     -0.11018455	    -47.47726777	      1.08610249	      0.88236520	      0.90893537	     20.04640064	     -1.88429893	      0.53658759	    -51.81400594	      3.29768996	     13.16220662	      8.97430179	     -5.69945586	     -3.77253673	     -0.15600057	      4.99794585	      7.77967175	      1.35222204	     -0.59896723	      8.77032803
      5.67000000	     -9.40855049	     -0.23392046	    -47.34987852	      1.08926629	      0.88263400	      0.91051482	     20.11336995	     -1.75388177	      0.77634199	    -50.63423659	      3.66250889	     13.44706845	      8.64951240	     -5.65943000	     -3.69457143	     -0.13232660	      5.07067382	      7.49292700	      1.32376844	     -0.60756993	      8.75372763
      5.68000000	     -9.38728380	     -0.33101976	    -47.24665844	      1.09232717	      0.88285036	      0.91210438	     20.16847931	     -1.63621722	      1.06261262	    -49.39511924	      3.97105695	     13.64661350	      8.35063444	     -5.61030252	     -3.64060104	     -0.12333415	      5.18479913	      7.27147104	      1.31735507	     -0.63269228	      8.76464013
      5.69000000	     -9.36124021	     -0.40648362	    -47.16814502	      1.09527975	      0.88303725	      0.91371173	     20.20470867	     -1.53368767	      1.38323796	    -48.09854097	      4.24274213	     13.77123052	      8.07044427	     -5.55269523	     -3.60614401	     -0.12977730	      5.32523113	      7.08847050	      1.32613932	     -0.67660190	      8.79279395
      5.70000000	     -9.33203259	     -0.46670198	    -47.10719346	      1.09814692	      0.88320517	      0.91530830	     20.21756307	     -1.44493977	      1.72779135	    -46.74586136	      4.50899032	     13.83584995	      7.80566620	     -5.48745837	     -3.59144779	     -0.14763974	      5.48643526	      6.92697560	      1.34303048	     -0.72854350	      8.83860785
      5.71000000	     -9.29711498	     -0.51010545	    -47.06390458	      1.10092110	      0.88335696	      0.91690065	     20.21264724	     -1.37941687	      2.07414796	    -45.35127801	      4.78705098	     13.85223501	      7.55681643	     -5.41262377	     -3.59125757	     -0.17855151	      5.65695871	      6.78045021	      1.36848166	     -0.79392223	      8.89530161
      5.72000000	     -9.25460618	     -0.53805548	    -47.03305732	      1.10360973	      0.88350159	      0.91847633	     20.18989804	     -1.34033158	      2.40934154	    -43.91923069	      5.08467609	     13.82468168	      7.32202263	     -5.32562852	     -3.60050967	     -0.22244112	      5.82935703	      6.64002150	      1.39826344	     -0.87248467	      8.95661539
      5.73000000	     -9.20853505	     -0.54742710	    -47.01230574	      1.10621628	      0.88362531	      0.92003081	     20.15989445	     -1.33177430	      2.71547407	    -42.46253086	      5.39686286	     13.74114104	      7.10803009	     -5.22709443	     -3.61731884	     -0.28036310	      6.00586885	      6.50941982	      1.43771997	     -0.96338206	      9.01813714
      5.74000000	     -9.15655898	     -0.54709679	    -46.99851220	      1.10876355	      0.88373897	      0.92153924	     20.11509397	     -1.35279534	      2.97945951	    -40.98540920	      5.69949583	     13.56615095	      6.90560232	     -5.11783103	     -3.63764047	     -0.34853392	      6.17909746	      6.37684123	      1.47575786	     -1.05652185	      9.08158596
      5.75000000	     -9.10853823	     -0.53161420	    -46.98941030	      1.11124693	      0.88382038	      0.92300537	     20.07007859	     -1.39770636	      3.19788808	    -39.49736748	      5.98053439	     13.27414211	      6.72752071	     -5.00227442	     -3.65947020	     -0.42826840	      6.35999039	      6.25564602	      1.52494008	     -1.14917642	      9.13767342
      5.76000000	     -9.06658936	     -0.51006368	    -46.98342752	      1.11367387	      0.88388221	      0.92443533	     20.01604542	     -1.45601452	      3.36876863	    -37.99408999	      6.22575662	     12.83218483	      6.56630518	     -4.88823556	     -3.68002332	     -0.51658091	      6.54312652	      6.14018078	      1.57999014	     -1.23487137	      9.19022487
      5.77000000	     -9.03762466	     -0.47251529	    -46.97911967	      1.11604414	      0.88389706	      0.92580963	     19.96874299	     -1.52592761	      3.51093469	    -36.48368004	      6.44353404	     12.31939173	      6.43717433	     -4.77252376	     -3.70335024	     -0.61447671	      6.73958832	      6.04275920	      1.65247983	     -1.30862213	      9.23059243
      5.78000000	     -9.00790604	     -0.42799080	    -46.97311321	      1.11834758	      0.88390253	      0.92712795	     19.91419726	     -1.61155510	      3.60842552	    -34.96944337	      6.63874582	     11.59616402	      6.32211496	     -4.65180618	     -3.71220645	     -0.71701849	      6.88052686	      5.93442869	      1.72082818	     -1.38604714	      9.28694131
      5.79000000	     -8.99264398	     -0.37345197	    -46.97814351	      1.12058715	      0.88386722	      0.92842536	     19.86284587	     -1.69253230	      3.70082055	    -33.44790977	      6.82359174	     10.90106077	      6.22791244	     -4.53706992	     -3.74003244	     -0.82128190	      7.06509625	      5.83577848	      1.80576720	     -1.44742213	      9.33273176
      5.80000000	     -8.98079670	     -0.32017868	    -46.99222765	      1.12274276	      0.88382960	      0.92969126	     19.79684849	     -1.76665374	      3.79106116	    -31.91220992	      6.97567822	     10.21816532	      6.14461878	     -4.43039915	     -3.76441635	     -0.93763973	      7.25778548	      5.73723906	      1.88300884	     -1.49985055	      9.39906072
      5.81000000	     -8.97165663	     -0.25543915	    -47.01489666	      1.12484199	      0.88376858	      0.93094952	     19.72808384	     -1.84243472	      3.87665879	    -30.37578220	      7.13349035	      9.50657431	      6.06731744	     -4.31941167	     -3.80376179	     -1.04053230	      7.43731096	      5.63790045	      1.96735248	     -1.55145955	      9.46585962
      5.82000000	     -8.96361232	     -0.19217345	    -47.04875170	      1.12686251	      0.88371024	      0.93220359	     19.63960519	     -1.90637076	      3.97027484	    -28.82582958	      7.25698095	      8.82623366	      5.98803442	     -4.21560469	     -3.84073389	     -1.13768925	      7.61793444	      5.54148701	      2.04426441	     -1.59546743	      9.56035207
      5.83000000	     -8.95751194	     -0.12705579	    -47.09474493	      1.12880417	      0.88364964	      0.93347193	     19.53417444	     -1.95721018	      4.06965547	    -27.26670133	      7.35651042	      8.17659374	      5.90729397	     -4.11761546	     -3.88224168	     -1.22413305	      7.78657521	      5.44486922	      2.11852822	     -1.63632385	      9.67477972
      5.84000000	     -8.95892651	     -0.06072356	    -47.15034760	      1.13066740	      0.88357706	      0.93474618	     19.41808178	     -1.99078178	      4.16801600	    -25.70661830	      7.42305499	      7.57993817	      5.82828117	     -4.02872202	     -3.93538485	     -1.29678712	      7.94266247	      5.34385604	      2.19289329	     -1.66630797	      9.80569381
      5.85000000	     -8.96947189	      0.00983180	    -47.21298772	      1.13244881	      0.88348281	      0.93601761	     19.30021269	     -2.00790321	      4.25988876	    -24.15855589	      7.45562607	      7.07821686	      5.75564162	     -3.94765280	     -3.98941155	     -1.35685813	      8.09290099	      5.23917304	      2.27027560	     -1.68630147	      9.94999739
      5.86000000	     -9.00799328	      0.08962130	    -47.28498935	      1.13411568	      0.88334983	      0.93732056	     19.19947603	     -1.99248913	      4.34726010	    -22.62812240	      7.42410761	      6.74751097	      5.71007936	     -3.89014139	     -4.06631928	     -1.40859221	      8.24235292	      5.14106537	      2.37229884	     -1.69301604	     10.09933546
      5.87000000	     -9.04407565	      0.17712627	    -47.35211350	      1.13567758	      0.88320397	      0.93856295	     19.10685248	     -1.97496839	      4.40950821	    -21.14363646	      7.35725897	      6.49558263	      5.68968139	     -3.82858958	     -4.11135752	     -1.48595084	      8.34808169	      5.04646995	      2.46334814	     -1.70597603	     10.28482669
      5.88000000	     -9.07404274	      0.23851071	    -47.42163161	      1.13718092	      0.88306965	      0.93986957	     18.98228902	     -1.92520940	      4.43906044	    -19.71283183	      7.33134253	      6.15828431	      5.60873362	     -3.78594541	     -4.16367977	     -1.49448503	      8.49108812	      4.90061419	      2.52851537	     -1.70511368	     10.42770325
      5.89000000	     -9.13099271	      0.34890828	    -47.49654900	      1.13853201	      0.88285205	      0.94110316	     18.93952164	     -1.87543568	      4.46564195	    -18.36604523	      7.21508407	      6.05180093	      5.62172668	     -3.73548369	     -4.21423138	     -1.55441790	      8.59433860	      4.81221395	      2.63991838	     -1.71923350	     10.60614416
      5.90000000	     -9.19236755	      0.44092891	    -47.57580052	      1.13979306	      0.88263872	      0.94236192	     18.89231081	     -1.79051225	      4.47763001	    -17.10296750	      7.11142021	      5.97453415	      5.61212534	     -3.70805459	     -4.27851556	     -1.58775329	      8.72066811	      4.70770866	      2.73467034	     -1.71711042	     10.76284123
      5.91000000	     -9.25441217	      0.54236056	    -47.65912904	      1.14095445	      0.88240624	      0.94358182	     18.87786378	     -1.69626325	      4.48878241	    -15.95294546	      6.99226772	      5.94901806	      5.62120972	     -3.67821637	     -4.33543119	     -1.63070076	      8.83233163	      4.61740543	      2.82738640	     -1.72106999	     10.92692835
      5.92000000	     -9.32087315	      0.63540027	    -47.74556381	      1.14204467	      0.88217154	      0.94480601	     18.87460196	     -1.57738206	      4.51445466	    -14.91114185	      6.86958472	      5.95203090	      5.62362487	     -3.66270609	     -4.40884511	     -1.66159802	      8.95575498	      4.52165390	      2.91144067	     -1.71358214	     11.06875726
      5.93000000	     -9.38009775	      0.72702451	    -47.83389522	      1.14308139	      0.88193585	      0.94600026	     18.88927036	     -1.45139016	      4.55783714	    -13.99785985	      6.74453516	      5.97408600	      5.62528692	     -3.64364810	     -4.47955666	     -1.69654883	      9.07332958	      4.43237615	      2.98229807	     -1.70663677	     11.20504326
